<?xml version="1.0" encoding="UTF-8" standalone="no"?>
<svg
   xmlns:dc="http://purl.org/dc/elements/1.1/"
   xmlns:cc="http://creativecommons.org/ns#"
   xmlns:rdf="http://www.w3.org/1999/02/22-rdf-syntax-ns#"
   xmlns:svg="http://www.w3.org/2000/svg"
   xmlns="http://www.w3.org/2000/svg"
   xmlns:sodipodi="http://sodipodi.sourceforge.net/DTD/sodipodi-0.dtd"
   xmlns:inkscape="http://www.inkscape.org/namespaces/inkscape"
   version="1.1"
   height="200px"
   width="400px"
   id="svg2"
   inkscape:version="0.48.4 r9939"
   sodipodi:docname="logo.svg">
  <metadata
     id="metadata62">
    <rdf:RDF>
      <cc:Work
         rdf:about="">
        <dc:format>image/svg+xml</dc:format>
        <dc:type
           rdf:resource="http://purl.org/dc/dcmitype/StillImage" />
        <dc:title></dc:title>
      </cc:Work>
    </rdf:RDF>
  </metadata>
  <defs
     id="defs60" />
  <sodipodi:namedview
     pagecolor="#ffffff"
     bordercolor="#666666"
     borderopacity="1"
     objecttolerance="10"
     gridtolerance="10"
     guidetolerance="10"
     inkscape:pageopacity="0"
     inkscape:pageshadow="2"
     inkscape:window-width="1920"
     inkscape:window-height="1018"
     id="namedview58"
     showgrid="false"
     inkscape:zoom="1.0111627"
     inkscape:cx="406.28846"
     inkscape:cy="-6.9643232"
     inkscape:window-x="-8"
     inkscape:window-y="-8"
     inkscape:window-maximized="1"
     inkscape:current-layer="g4" />
  <g
     id="g4">
    <g
       id="g6"
       inkscape:export-filename="C:\Users\matts\Desktop\dev\brit\app\img\global\logo.png"
       inkscape:export-xdpi="18.781725"
       inkscape:export-ydpi="18.781725">
      <g
         fill="#a00932"
         id="g8">
        <path
           d="M20.24324,46.79054L20,44.84459c0.32432,-3.40541 2.29054,-6.77027 5.89865,-10.09459c3.60811,-3.32432 8.16892,-6.48649 13.68243,-9.48649c5.51351,-3 14.27027,-5.51351 26.27027,-7.54054c6.81081,-1.05405 12.50676,-1.58108 17.08784,-1.58108c4.58108,0 8.61486,0.38514 12.10135,1.15541c3.48649,0.77027 6.36486,2.29054 8.63514,4.56081c2.27027,2.27027 3.40541,4.96622 3.40541,8.08784c0,3.12162 -1.31757,6.06081 -3.9527,8.81757c-2.63514,2.75676 -5.93919,4.86486 -9.91216,6.32432c-7.7027,2.83784 -15.08108,4.41892 -22.13514,4.74324c3.48649,2.10811 6.36486,3.9527 8.63514,5.53378c2.27027,1.58108 4.7027,3.66892 7.2973,6.26351c2.59459,2.59459 4.25676,4.82432 4.98649,6.68919c0.72973,1.86486 1.09459,3.52703 1.09459,4.98649c0,4.78378 -1.82432,9.36486 -5.47297,13.74324c-2.43243,3 -5.81757,5.39189 -10.15541,7.17568c-4.33784,1.78378 -8.93919,2.67568 -13.80405,2.67568c-10.37838,0 -16.05405,-3.64865 -17.02703,-10.94595c-0.16216,-0.16216 -0.24324,-0.40541 -0.24324,-0.72973c-3.08108,4.94595 -5.63514,7.41892 -7.66216,7.41892c-0.56757,0 -1.47973,-0.14189 -2.73649,-0.42568c-1.25676,-0.28378 -1.90541,-0.58784 -1.94595,-0.91216c-0.04054,-0.32432 -0.06081,-1.01351 -0.06081,-2.06757c0,-1.05405 0.77027,-3.58784 2.31081,-7.60135c1.54054,-4.01351 3.28378,-7.96622 5.22973,-11.85811c3.81081,-7.2973 7.58108,-14.35135 11.31081,-21.16216c0.64865,-1.45946 0.97297,-2.55405 0.97297,-3.28378c0,-0.72973 -0.04054,-1.2973 -0.12162,-1.7027c0.32432,-2.27027 2.29054,-5.25 5.89865,-8.93919c3.60811,-3.68919 6.87162,-5.53378 9.79054,-5.53378c0.97297,0 2.27027,0.36486 3.89189,1.09459c1.62162,0.72973 2.59459,1.74324 2.91892,3.04054c0.08108,0.56757 0.10135,0.91216 0.06081,1.03378c-0.04054,0.12162 -0.26351,0.10135 -0.66892,-0.06081c-0.40541,-0.16216 -0.64865,-0.24324 -0.72973,-0.24324c-2.59459,0 -5.69595,1.92568 -9.30405,5.77703c-3.60811,3.85135 -7.07432,8.57432 -10.39865,14.16892c-6.89189,11.35135 -11.83784,20.67568 -14.83784,27.97297c-0.64865,1.62162 -0.97297,2.87838 -0.97297,3.77027c0,1.21622 0.52703,1.82432 1.58108,1.82432c1.05405,0 2.47297,-1.11486 4.25676,-3.34459c1.78378,-2.22973 3.04054,-3.32432 3.77027,-3.28378c0.72973,0.04054 1.31757,0.26351 1.76351,0.66892c0.44595,0.40541 0.75,0.83108 0.91216,1.27703c0.16216,0.44595 0.28378,1.07432 0.36486,1.88514c0.08108,0.81081 0.16216,1.33784 0.24324,1.58108c1.2973,5.75676 5.39189,8.63514 12.28378,8.63514c0.16216,0 0.32432,0 0.48649,0c5.59459,0 10.37838,-1.2973 14.35135,-3.89189c4.37838,-2.91892 6.56757,-6.5473 6.56757,-10.88514c0,-4.33784 -2.02703,-8.89865 -6.08108,-13.68243c-1.2973,-1.45946 -3.2027,-3.28378 -5.71622,-5.47297c-5.35135,-4.62162 -8.10811,-7.58108 -8.27027,-8.87838c-0.16216,-1.2973 0.38514,-2.37162 1.64189,-3.22297c1.25676,-0.85135 2.41216,-1.27703 3.46622,-1.27703c3.97297,0 9.40541,-1.41892 16.2973,-4.25676c10.13514,-4.13514 15.56757,-8.71622 16.2973,-13.74324c0,-0.32432 0,-0.56757 0,-0.72973c0,-1.45946 -0.64865,-2.83784 -1.94595,-4.13514c-2.18919,-2.35135 -6.81081,-3.52703 -13.86486,-3.52703c-9.64865,0 -20.87838,1.74324 -33.68919,5.22973c-7.78378,2.10811 -14.63514,5.10811 -20.55405,9c-6.48649,4.2973 -9.72973,8.87838 -9.72973,13.74324c0,1.05405 0.32432,2.08784 0.97297,3.10135c0.64865,1.01351 1.39865,1.74324 2.25,2.18919c0.85135,0.44595 1.96622,0.93243 3.34459,1.45946c1.37838,0.52703 2.37162,0.93243 2.97973,1.21622c0.60811,0.28378 0.81081,0.62838 0.60811,1.03378c-0.2027,0.40541 -0.79054,0.52703 -1.76351,0.36486c-2.67568,-0.16216 -5.35135,-1.27703 -8.02703,-3.34459c-2.67568,-2.06757 -4.01351,-4.47973 -4.01351,-7.23649c0,-0.40541 0.04054,-0.81081 0.12162,-1.21622z"
           id="path10" />
        <path
           d="M118.63514,91.06081c-4.13514,0 -6.2027,-2.49324 -6.2027,-7.47973c0,-4.98649 3.56757,-11.12838 10.7027,-18.42568c0.56757,-0.56757 0.97297,-1.01351 1.21622,-1.33784L125.2027,62.60135c1.13514,-1.54054 1.66216,-2.51351 1.58108,-2.91892L126.41892,58.58784c-0.32432,-0.97297 -1.66216,-1.68243 -4.01351,-2.12838c-2.35135,-0.44595 -4.25676,-0.66892 -5.71622,-0.66892c-7.2973,10.2973 -11.51351,16.17568 -12.64865,17.63514c-1.13514,1.45946 -1.90541,2.06757 -2.31081,1.82432c-0.40541,-0.24324 -0.60811,-0.52703 -0.60811,-0.85135c0,-0.32432 0.24324,-0.81081 0.72973,-1.45946c4.37838,-5.35135 8.14865,-11.06757 11.31081,-17.14865c-0.97297,-0.16216 -1.7027,-0.50676 -2.18919,-1.03378c-0.48649,-0.52703 -0.52703,-1.41892 -0.12162,-2.67568c0.40541,-1.25676 1.64189,-2.93919 3.70946,-5.0473c2.06757,-2.10811 3.87162,-3.52703 5.41216,-4.25676c1.54054,-0.72973 2.51351,-1.17568 2.91892,-1.33784c0.40541,-0.16216 0.85135,-0.24324 1.33784,-0.24324c0.97297,0 0.64865,1.45946 -0.97297,4.37838L118.51351,53.11486c3.64865,0.24324 6.77027,0.36486 9.36486,0.36486L132.13514,53.35811c1.37838,0 2.39189,0.18243 3.04054,0.5473c0.64865,0.36486 0.81081,0.99324 0.48649,1.88514c-0.56757,1.54054 -1.98649,3.60811 -4.25676,6.2027c-4.86486,5.67568 -8.51351,11.71622 -10.94595,18.12162c-0.56757,1.54054 -0.85135,2.87838 -0.85135,4.01351c0,2.35135 0.85135,3.52703 2.55405,3.52703c0.56757,0 1.64189,-0.44595 3.22297,-1.33784c1.58108,-0.89189 4.23649,-3.02027 7.96622,-6.38514c3.72973,-3.36486 6.72973,-6.66892 9,-9.91216c0.32432,-0.40541 0.70946,-0.50676 1.15541,-0.30405c0.44595,0.2027 0.66892,0.40541 0.66892,0.60811c0,0.2027 -0.08108,0.42568 -0.24324,0.66892c-1.21622,2.18919 -3.40541,4.98649 -6.56757,8.39189c-3.16216,3.40541 -6.24324,6.16216 -9.24324,8.27027c-2.91892,2.27027 -6.08108,3.40541 -9.48649,3.40541z"
           id="path12" />
        <path
           x="0"
           y="0"
           d="M152.56757,54.33108c2.02703,0 3.24324,0.64865 3.64865,1.94595c0.16216,0.72973 0.06081,1.43919 -0.30405,2.12838c-0.36486,0.68919 -0.62838,1.23649 -0.79054,1.64189c-0.16216,0.40541 -0.28378,0.72973 -0.36486,0.97297c-0.40541,0.81081 -0.81081,1.58108 -1.21622,2.31081c-4.62162,9.24324 -7.05405,15.12162 -7.2973,17.63514c-0.08108,0.72973 -0.12162,1.66216 -0.12162,2.7973c0,1.13514 0.32432,2.06757 0.97297,2.7973c1.13514,1.2973 2.75676,1.37838 4.86486,0.24324c2.10811,-1.13514 5.0473,-3.40541 8.81757,-6.81081c3.77027,-3.40541 6.83108,-6.72973 9.18243,-9.97297c0.32432,-0.40541 0.68919,-0.50676 1.09459,-0.30405c0.40541,0.2027 0.60811,0.40541 0.60811,0.60811c0,0.2027 -0.08108,0.42568 -0.24324,0.66892c-1.21622,2.18919 -3.40541,4.98649 -6.56757,8.39189c-5.18919,5.59459 -9.52703,9.04054 -13.01351,10.33784c-2.02703,0.72973 -3.72973,1.09459 -5.10811,1.09459c-3.24324,0 -5.39189,-1.54054 -6.44595,-4.62162c-0.16216,-0.56757 -0.24324,-1.25676 -0.24324,-2.06757c0,-2.83784 1.2973,-7.13514 3.89189,-12.89189c-0.40541,0.89189 -1.98649,2.91892 -4.74324,6.08108c-0.72973,0.81081 -1.2973,0.81081 -1.7027,0c-0.08108,-0.16216 -0.12162,-0.38514 -0.12162,-0.66892c0,-0.28378 0.16216,-0.62838 0.48649,-1.03378c3.97297,-4.94595 7.09459,-9.12162 9.36486,-12.52703c-0.16216,-0.40541 -0.08108,-0.93243 0.24324,-1.58108c1.62162,-4.54054 3.04054,-6.93243 4.25676,-7.17568c0.24324,0 0.52703,0 0.85135,0z M162.17568,38.15541L161.2027,42.0473c0,0.72973 -0.52703,1.90541 -1.58108,3.52703c-1.05405,1.62162 -1.86486,2.43243 -2.43243,2.43243c-3.48649,0 -5.22973,-0.85135 -5.22973,-2.55405c0,-0.32432 1.74324,-1.82432 5.22973,-4.5L159.25676,39.37162c1.2973,-1.13514 2.10811,-1.7027 2.43243,-1.7027c0.32432,0 0.48649,0.16216 0.48649,0.48649z"
           id="path14" />
        <path
           d="M187.83784,53.96622c6.24324,-0.56757 10.03378,-0.85135 11.37162,-0.85135c1.33784,0 2.00676,0.2027 2.00676,0.60811c0,0.48649 -0.9527,0.99324 -2.85811,1.52027c-1.90541,0.52703 -6.5473,1.19595 -13.92568,2.00676c-0.40541,0.72973 -0.89189,1.58108 -1.45946,2.55405c-1.21622,1.94595 -1.86486,3.12162 -1.94595,3.52703c-4.62162,9.24324 -7.05405,15.12162 -7.2973,17.63514c-0.08108,0.72973 -0.12162,1.66216 -0.12162,2.7973c0,1.13514 0.32432,2.06757 0.97297,2.7973c1.13514,1.2973 2.75676,1.37838 4.86486,0.24324c2.10811,-1.13514 5.0473,-3.40541 8.81757,-6.81081c3.77027,-3.40541 6.83108,-6.72973 9.18243,-9.97297c0.32432,-0.40541 0.72973,-0.48649 1.21622,-0.24324c1.21622,0.56757 -0.89189,3.77027 -6.32432,9.60811c-5.18919,5.59459 -9.52703,9.04054 -13.01351,10.33784c-2.02703,0.72973 -3.72973,1.09459 -5.10811,1.09459c-3.24324,0 -5.39189,-1.54054 -6.44595,-4.62162c-0.16216,-0.56757 -0.24324,-1.25676 -0.24324,-2.06757c0,-2.83784 1.2973,-7.13514 3.89189,-12.89189c-0.40541,0.89189 -1.98649,2.91892 -4.74324,6.08108c-0.72973,0.81081 -1.2973,0.81081 -1.7027,0c-0.08108,-0.16216 -0.12162,-0.38514 -0.12162,-0.66892c0,-0.28378 0.16216,-0.62838 0.48649,-1.03378c3.97297,-4.94595 7.09459,-9.12162 9.36486,-12.52703c0,-0.08108 0.89189,-1.78378 2.67568,-5.10811c-0.81081,0.16216 -1.64189,0.24324 -2.49324,0.24324c-0.85135,0 -1.47973,-0.26351 -1.88514,-0.79054c-0.40541,-0.52703 -0.44595,-1.15541 -0.12162,-1.88514c0.56757,-1.2973 2.71622,-2.02703 6.44595,-2.18919c0.08108,-0.16216 0.24324,-0.24324 0.48649,-0.24324L185.89189,41.80405c0.32432,-0.64865 0.68919,-1.31757 1.09459,-2.00676c0.40541,-0.68919 0.70946,-1.21622 0.91216,-1.58108c0.2027,-0.36486 0.42568,-0.75 0.66892,-1.15541c0.24324,-0.40541 0.44595,-0.68919 0.60811,-0.85135c0.16216,-0.16216 0.32432,-0.32432 0.48649,-0.48649c0.32432,-0.48649 1.27703,-0.72973 2.85811,-0.72973c1.58108,0 2.65541,0.44595 3.22297,1.33784c0.24324,0.32432 0.36486,0.87162 0.36486,1.64189c0,0.77027 -0.28378,1.62162 -0.85135,2.55405c-0.56757,0.93243 -1.17568,1.60135 -1.82432,2.00676c-0.64865,0.40541 -1.09459,0.85135 -1.33784,1.33784L186.25676,54.08784L187.83784,53.96622z"
           id="path16" />
        <path
           d="M215.32432,53.96622c6.24324,-0.56757 10.03378,-0.85135 11.37162,-0.85135c1.33784,0 2.00676,0.2027 2.00676,0.60811c0,0.48649 -0.9527,0.99324 -2.85811,1.52027c-1.90541,0.52703 -6.5473,1.19595 -13.92568,2.00676c-0.40541,0.72973 -0.89189,1.58108 -1.45946,2.55405c-1.21622,1.94595 -1.86486,3.12162 -1.94595,3.52703c-4.62162,9.24324 -7.05405,15.12162 -7.2973,17.63514c-0.08108,0.72973 -0.12162,1.66216 -0.12162,2.7973c0,1.13514 0.32432,2.06757 0.97297,2.7973c1.13514,1.2973 2.75676,1.37838 4.86486,0.24324c2.10811,-1.13514 5.0473,-3.40541 8.81757,-6.81081c3.77027,-3.40541 6.83108,-6.72973 9.18243,-9.97297c0.32432,-0.40541 0.72973,-0.48649 1.21622,-0.24324c1.21622,0.56757 -0.89189,3.77027 -6.32432,9.60811c-5.18919,5.59459 -9.52703,9.04054 -13.01351,10.33784c-2.02703,0.72973 -3.72973,1.09459 -5.10811,1.09459c-3.24324,0 -5.39189,-1.54054 -6.44595,-4.62162c-0.16216,-0.56757 -0.24324,-1.25676 -0.24324,-2.06757c0,-2.83784 1.2973,-7.13514 3.89189,-12.89189c-0.40541,0.89189 -1.98649,2.91892 -4.74324,6.08108c-0.72973,0.81081 -1.2973,0.81081 -1.7027,0c-0.08108,-0.16216 -0.12162,-0.38514 -0.12162,-0.66892c0,-0.28378 0.16216,-0.62838 0.48649,-1.03378c3.97297,-4.94595 7.09459,-9.12162 9.36486,-12.52703c0,-0.08108 0.89189,-1.78378 2.67568,-5.10811c-0.81081,0.16216 -1.64189,0.24324 -2.49324,0.24324c-0.85135,0 -1.47973,-0.26351 -1.88514,-0.79054c-0.40541,-0.52703 -0.44595,-1.15541 -0.12162,-1.88514c0.56757,-1.2973 2.71622,-2.02703 6.44595,-2.18919c0.08108,-0.16216 0.24324,-0.24324 0.48649,-0.24324L213.37838,41.80405c0.32432,-0.64865 0.68919,-1.31757 1.09459,-2.00676c0.40541,-0.68919 0.70946,-1.21622 0.91216,-1.58108c0.2027,-0.36486 0.42568,-0.75 0.66892,-1.15541c0.24324,-0.40541 0.44595,-0.68919 0.60811,-0.85135c0.16216,-0.16216 0.32432,-0.32432 0.48649,-0.48649c0.32432,-0.48649 1.27703,-0.72973 2.85811,-0.72973c1.58108,0 2.65541,0.44595 3.22297,1.33784c0.24324,0.32432 0.36486,0.87162 0.36486,1.64189c0,0.77027 -0.28378,1.62162 -0.85135,2.55405c-0.56757,0.93243 -1.17568,1.60135 -1.82432,2.00676c-0.64865,0.40541 -1.09459,0.85135 -1.33784,1.33784L213.74324,54.08784L215.32432,53.96622z"
           id="path18" />
        <path
           d="M257.16216,53.47973c1.86486,0 2.7973,0.99324 2.7973,2.97973c0,1.98649 -0.93243,4.72297 -2.7973,8.20946c-1.86486,3.48649 -3.24324,6.32432 -4.13514,8.51351c-1.54054,3.72973 -2.31081,6.70946 -2.31081,8.93919c0,2.22973 0.32432,3.70946 0.97297,4.43919c1.21622,1.2973 2.87838,1.35811 4.98649,0.18243c2.10811,-1.17568 5.0473,-3.44595 8.81757,-6.81081c3.77027,-3.36486 6.79054,-6.66892 9.06081,-9.91216c0.32432,-0.40541 0.70946,-0.50676 1.15541,-0.30405c0.44595,0.2027 0.66892,0.40541 0.66892,0.60811c0,0.2027 -0.08108,0.42568 -0.24324,0.66892c-1.21622,2.18919 -3.40541,4.98649 -6.56757,8.39189c-3.16216,3.40541 -6.2027,6.14189 -9.12162,8.20946c-2.91892,2.06757 -5.7973,3.10135 -8.63514,3.10135c-2.75676,-0.08108 -4.7027,-0.70946 -5.83784,-1.88514c-1.13514,-1.17568 -1.7027,-2.65541 -1.7027,-4.43919c0,-1.78378 0.16216,-3.50676 0.48649,-5.16892c0.32432,-1.66216 0.93243,-3.58784 1.82432,-5.77703c1.45946,-3.48649 2.73649,-6.2027 3.83108,-8.14865c1.09459,-1.94595 1.64189,-3.22297 1.64189,-3.83108c0,-0.60811 -0.32432,-0.91216 -0.97297,-0.91216c-1.2973,0 -3.77027,1.58108 -7.41892,4.74324c-2.51351,2.35135 -6.22297,6.79054 -11.12838,13.31757c-4.90541,6.52703 -7.68243,9.99324 -8.33108,10.39865c-2.91892,1.45946 -4.74324,2.18919 -5.47297,2.18919c-0.72973,0 -1.09459,-0.12162 -1.09459,-0.36486c0,-0.24324 0.08108,-0.58784 0.24324,-1.03378c0.16216,-0.44595 0.9527,-2.65541 2.37162,-6.62838c1.41892,-3.97297 2.95946,-8.33108 4.62162,-13.07432c1.66216,-4.74324 2.67568,-7.60135 3.04054,-8.57432c0.36486,-0.97297 0.60811,-1.80405 0.72973,-2.49324c0.12162,-0.68919 0.26351,-1.27703 0.42568,-1.76351c0.16216,-0.48649 0.46622,-1.03378 0.91216,-1.64189c0.44595,-0.60811 1.03378,-0.93243 1.76351,-0.97297c0.72973,-0.04054 1.66216,0.04054 2.7973,0.24324c1.13514,0.2027 1.7027,0.70946 1.7027,1.52027c0,0.56757 -0.44595,1.80405 -1.33784,3.70946c-0.89189,1.90541 -3.44595,8.4527 -7.66216,19.64189c2.91892,-3.56757 6.60811,-7.68243 11.06757,-12.34459c4.45946,-4.66216 8.22973,-8.20946 11.31081,-10.64189c3.08108,-2.18919 5.59459,-3.28378 7.54054,-3.28378z"
           id="path20" />
        <path
           d="M301.18919,52.62838c4.37838,0 6.56757,2.10811 6.56757,6.32432c0,2.18919 -0.60811,3.97297 -1.82432,5.35135c-2.02703,3 -5.31081,5.61486 -9.85135,7.84459c-4.54054,2.22973 -8.39189,3.46622 -11.55405,3.70946c-1.13514,0.08108 -1.74324,-0.24324 -1.82432,-0.97297c-0.08108,-0.32432 0.02027,-0.52703 0.30405,-0.60811c0.28378,-0.08108 0.50676,-0.12162 0.66892,-0.12162c1.86486,-0.16216 4.25676,-1.05405 7.17568,-2.67568c5.43243,-2.91892 9.40541,-5.91892 11.91892,-9c1.05405,-1.45946 1.58108,-2.85811 1.58108,-4.19595c0,-1.33784 -0.64865,-2.00676 -1.94595,-2.00676c-1.05405,0 -2.47297,0.44595 -4.25676,1.33784c-3.81081,1.78378 -7.82432,4.88514 -12.04054,9.30405c-4.21622,4.41892 -6.97297,8.73649 -8.27027,12.9527c-0.40541,1.2973 -0.60811,2.57432 -0.60811,3.83108c0,1.25676 0.52703,2.4527 1.58108,3.58784c1.05405,1.13514 2.67568,1.7027 4.86486,1.7027c2.43243,0 5.22973,-0.64865 8.39189,-1.94595c9.16216,-3.72973 16.21622,-9.36486 21.16216,-16.90541c0.48649,-0.64865 0.93243,-0.77027 1.33784,-0.36486c0.32432,0.16216 0.48649,0.36486 0.48649,0.60811c0,0.24324 -0.12162,0.52703 -0.36486,0.85135c-2.43243,4.05405 -5.51351,7.66216 -9.24324,10.82432c-7.21622,6.16216 -14.22973,9.24324 -21.04054,9.24324c-5.83784,0 -9.93243,-1.74324 -12.28378,-5.22973c-0.89189,-1.37838 -1.33784,-3.04054 -1.33784,-4.98649c0,-1.94595 0.52703,-4.25676 1.58108,-6.93243c2.02703,-4.62162 6.36486,-9.36486 13.01351,-14.22973c6.64865,-4.86486 11.91892,-7.2973 15.81081,-7.2973z"
           id="path22" />
        <path
           x="0"
           y="0"
           d="M308.60811,134.35811c-0.64865,0 -1.45946,-0.12162 -2.43243,-0.36486c-4.13514,-1.05405 -6.2027,-3.22297 -6.2027,-6.50676c0,-3.28378 2.12838,-7.39865 6.38514,-12.34459c4.25676,-4.94595 13.23649,-11.95946 26.93919,-21.04054c7.62162,-15.56757 12.44595,-26.47297 14.47297,-32.71622c-0.97297,1.13514 -2.87838,3.58784 -5.71622,7.35811c-2.83784,3.77027 -5.35135,6.97297 -7.54054,9.60811c-2.18919,2.63514 -4.82432,5.12838 -7.90541,7.47973c-3.08108,2.35135 -5.91892,3.52703 -8.51351,3.52703c-2.59459,0 -4.60135,-0.58784 -6.02027,-1.76351c-1.41892,-1.17568 -2.20946,-2.41216 -2.37162,-3.70946c-0.16216,-1.2973 -0.24324,-2.39189 -0.24324,-3.28378c0,-3 0.81081,-6 2.43243,-9c2.43243,-4.94595 5.71622,-9.2027 9.85135,-12.77027c1.54054,-1.45946 2.89865,-2.18919 4.07432,-2.18919c1.17568,0 2.25,0.36486 3.22297,1.09459c1.05405,1.13514 1.37838,2.10811 0.97297,2.91892c-3.08108,1.78378 -6.60811,5.22973 -10.58108,10.33784c-2.10811,2.75676 -3.56757,6.24324 -4.37838,10.45946c-0.08108,0.56757 -0.12162,1.27703 -0.12162,2.12838c0,0.85135 0.34459,1.54054 1.03378,2.06757c0.68919,0.52703 1.39865,0.79054 2.12838,0.79054c2.51351,0 5.14865,-1.33784 7.90541,-4.01351c2.75676,-2.67568 5.39189,-5.49324 7.90541,-8.4527c2.51351,-2.95946 5.37162,-6.50676 8.57432,-10.64189c3.2027,-4.13514 5.31081,-6.85135 6.32432,-8.14865c1.01351,-1.2973 2.0473,-1.94595 3.10135,-1.94595c1.2973,0 2.63514,0.36486 4.01351,1.09459c1.37838,0.72973 1.96622,1.2973 1.76351,1.7027c-0.2027,0.40541 -2.27027,5.00676 -6.2027,13.80405c-3.93243,8.7973 -6.79054,15.10135 -8.57432,18.91216c1.94595,-1.05405 5.25,-3.5473 9.91216,-7.47973c4.66216,-3.93243 8.61486,-7.92568 11.85811,-11.97973c0.81081,-0.97297 1.33784,-1.05405 1.58108,-0.24324c0.08108,0.16216 0.12162,0.42568 0.12162,0.79054c0,0.36486 -0.24324,0.87162 -0.72973,1.52027c-2.51351,3.32432 -6.52703,7.5 -12.04054,12.52703c-5.51351,5.02703 -9.89189,8.43243 -13.13514,10.21622c-6.89189,14.18919 -11.51351,23.10811 -13.86486,26.75676c-6.08108,9 -12.08108,13.5 -18,13.5z M330.98649,98.72297c-9.72973,7.2973 -16.68243,13.05405 -20.85811,17.27027c-4.17568,4.21622 -6.26351,7.84459 -6.26351,10.88514c0,3.04054 1.05405,4.56081 3.16216,4.56081c1.62162,0 3.48649,-0.83108 5.59459,-2.49324c2.10811,-1.66216 4.13514,-3.87162 6.08108,-6.62838c1.94595,-2.75676 3.42568,-5.12838 4.43919,-7.11486c1.01351,-1.98649 2.41216,-4.90541 4.19595,-8.75676c1.78378,-3.85135 3,-6.42568 3.64865,-7.72297z"
           id="path24" />
      </g>
      <g
         fill="#424242"
         id="g26">
        <path
           d="M101.60811,122.56081c0,12.08108 -4.17568,22.88514 -12.52703,32.41216c-8.35135,9.52703 -17.63514,15.46622 -27.85135,17.81757c-3,0.72973 -5.87838,1.09459 -8.63514,1.09459c-7.54054,0 -13.78378,-2.7973 -18.72973,-8.39189c-4.94595,-5.59459 -7.41892,-12.64865 -7.41892,-21.16216c0,-11.27027 3.85135,-20.59459 11.55405,-27.97297c4.86486,-4.7027 10.82432,-7.90541 17.87838,-9.60811c2.10811,-0.40541 4.05405,-0.60811 5.83784,-0.60811c4.05405,0 7.01351,0.9527 8.87838,2.85811c1.86486,1.90541 2.39189,2.85811 1.58108,2.85811L70.22973,110.88514c-1.7027,-0.64865 -3.18243,-0.97297 -4.43919,-0.97297c-1.25676,0 -2.33108,0.12162 -3.22297,0.36486c-9.72973,2.27027 -17.59459,8.10811 -23.59459,17.51351c-4.62162,7.2973 -6.93243,14.63514 -6.93243,22.01351c0,10.13514 3.68919,16.7027 11.06757,19.7027c2.43243,1.05405 5.08784,1.58108 7.96622,1.58108c2.87838,0 5.81757,-0.36486 8.81757,-1.09459c5.43243,-1.21622 10.94595,-4.60135 16.54054,-10.15541c5.59459,-5.55405 10.17568,-12.10135 13.74324,-19.64189c3.56757,-7.54054 5.35135,-14.59459 5.35135,-21.16216c0,-8.59459 -2.55405,-15 -7.66216,-19.21622c-4.2973,-3.40541 -9.93243,-5.10811 -16.90541,-5.10811c-1.05405,0 -2.18919,0.04054 -3.40541,0.12162c-9,0.56757 -17.31081,3.60811 -24.93243,9.12162c-5.59459,3.89189 -10.2973,8.71622 -14.10811,14.47297c-3.81081,5.75676 -5.91892,11.47297 -6.32432,17.14865c-0.08108,1.2973 -0.46622,1.60135 -1.15541,0.91216c-0.68919,-0.68919 -1.03378,-1.72297 -1.03378,-3.10135c0,-5.83784 1.72297,-11.57432 5.16892,-17.20946c3.44595,-5.63514 8.0473,-10.52027 13.80405,-14.65541c4.05405,-2.91892 8.69595,-5.25 13.92568,-6.99324c5.22973,-1.74324 10.23649,-2.65541 15.02027,-2.73649c9.97297,0 18.08108,2.71622 24.32432,8.14865c6.24324,5.43243 9.36486,12.97297 9.36486,22.62162z"
           id="path28" />
        <path
           d="M110,109.48649c0,0 0.02027,-0.11149 0.06081,-0.33446c0.04054,-0.22297 0.34459,-0.53716 0.91216,-0.94257c0.56757,-0.40541 1.62162,-0.60811 3.16216,-0.60811c1.54054,0 2.31081,0.68919 2.31081,2.06757c0,0.97297 -0.2027,2.10811 -0.60811,3.40541c-0.40541,1.2973 -0.68919,2.25 -0.85135,2.85811c-0.16216,0.60811 -0.62838,2.14865 -1.39865,4.62162c-0.77027,2.47297 -1.31757,4.31757 -1.64189,5.53378c-0.32432,1.37838 -0.79054,2.06757 -1.39865,2.06757c-0.60811,0 -0.91216,-0.48649 -0.91216,-1.45946L110.12162,114.53378c0,-0.56757 -0.04054,-1.43919 -0.12162,-2.61486c-0.08108,-1.17568 -0.08108,-1.98649 0,-2.43243z"
           id="path30" />
        <path
           d="M138.82432,166.58784c-4.13514,0 -6.2027,-2.49324 -6.2027,-7.47973c0,-4.98649 3.56757,-11.12838 10.7027,-18.42568c0.56757,-0.56757 0.97297,-1.01351 1.21622,-1.33784L145.39189,138.12838c1.13514,-1.54054 1.66216,-2.51351 1.58108,-2.91892L146.60811,134.11486c-0.32432,-0.97297 -1.66216,-1.68243 -4.01351,-2.12838c-2.35135,-0.44595 -4.25676,-0.66892 -5.71622,-0.66892c-7.2973,10.2973 -11.51351,16.17568 -12.64865,17.63514c-1.13514,1.45946 -1.90541,2.06757 -2.31081,1.82432c-0.40541,-0.24324 -0.60811,-0.52703 -0.60811,-0.85135c0,-0.32432 0.24324,-0.81081 0.72973,-1.45946c4.37838,-5.35135 8.14865,-11.06757 11.31081,-17.14865c-0.97297,-0.16216 -1.7027,-0.50676 -2.18919,-1.03378c-0.48649,-0.52703 -0.52703,-1.41892 -0.12162,-2.67568c0.40541,-1.25676 1.64189,-2.93919 3.70946,-5.0473c2.06757,-2.10811 3.87162,-3.52703 5.41216,-4.25676c1.54054,-0.72973 2.51351,-1.17568 2.91892,-1.33784c0.40541,-0.16216 0.85135,-0.24324 1.33784,-0.24324c0.97297,0 0.64865,1.45946 -0.97297,4.37838L138.7027,128.64189c3.64865,0.24324 6.77027,0.36486 9.36486,0.36486L152.32432,128.88514c1.37838,0 2.39189,0.18243 3.04054,0.5473c0.64865,0.36486 0.81081,0.99324 0.48649,1.88514c-0.56757,1.54054 -1.98649,3.60811 -4.25676,6.2027c-4.86486,5.67568 -8.51351,11.71622 -10.94595,18.12162c-0.56757,1.54054 -0.85135,2.87838 -0.85135,4.01351c0,2.35135 0.85135,3.52703 2.55405,3.52703c0.56757,0 1.64189,-0.44595 3.22297,-1.33784c1.58108,-0.89189 4.23649,-3.02027 7.96622,-6.38514c3.72973,-3.36486 6.72973,-6.66892 9,-9.91216c0.32432,-0.40541 0.70946,-0.50676 1.15541,-0.30405c0.44595,0.2027 0.66892,0.40541 0.66892,0.60811c0,0.2027 -0.08108,0.42568 -0.24324,0.66892c-1.21622,2.18919 -3.40541,4.98649 -6.56757,8.39189c-3.16216,3.40541 -6.24324,6.16216 -9.24324,8.27027c-2.91892,2.27027 -6.08108,3.40541 -9.48649,3.40541z"
           id="path32" />
        <path
           d="M186.25676,150.16892c1.45946,-3 2.18919,-5.31081 2.18919,-6.93243c0,-1.62162 -0.18243,-2.89865 -0.5473,-3.83108c-0.36486,-0.93243 -0.2027,-1.72297 0.48649,-2.37162c0.68919,-0.64865 1.56081,-0.89189 2.61486,-0.72973c1.62162,0.40541 2.43243,2.22973 2.43243,5.47297c0,3.24324 -1.90541,7.5 -5.71622,12.77027c0.08108,2.18919 1.21622,3.28378 3.40541,3.28378c2.18919,0 5.51351,-2.35135 9.97297,-7.05405c2.10811,-2.43243 3.42568,-4.01351 3.9527,-4.74324c0.52703,-0.72973 0.99324,-0.99324 1.39865,-0.79054c0.40541,0.2027 0.60811,0.38514 0.60811,0.5473c0,0.81081 -1.45946,2.91892 -4.37838,6.32432c-4.62162,5.67568 -8.71622,8.51351 -12.28378,8.51351c-2.35135,0 -4.01351,-1.01351 -4.98649,-3.04054c-1.62162,1.7027 -3.2027,3.28378 -4.74324,4.74324c-3.16216,2.67568 -6.68919,4.01351 -10.58108,4.01351c-2.18919,0 -4.01351,-0.52703 -5.47297,-1.58108c-2.83784,-1.7027 -4.25676,-4.74324 -4.25676,-9.12162c0,-4.78378 1.62162,-9.64865 4.86486,-14.59459c1.86486,-2.91892 4.05405,-5.47297 6.56757,-7.66216c3.97297,-3.48649 7.74324,-5.22973 11.31081,-5.22973c0.89189,0 1.74324,0.12162 2.55405,0.36486c2.43243,0.81081 3.64865,2.35135 3.64865,4.62162c0,1.86486 -0.48649,2.7973 -1.45946,2.7973c-0.40541,-0.16216 -0.60811,-0.77027 -0.60811,-1.82432c0,-1.45946 -0.81081,-2.18919 -2.43243,-2.18919c-2.83784,0 -6.48649,2.59459 -10.94595,7.78378c-4.45946,5.18919 -7.13514,10.41892 -8.02703,15.68919c-0.16216,0.89189 -0.24324,1.88514 -0.24324,2.97973c0,1.09459 0.36486,2.35135 1.09459,3.77027c0.72973,1.41892 2.08784,2.12838 4.07432,2.12838c1.98649,0 4.15541,-0.89189 6.50676,-2.67568c2.35135,-1.78378 4.45946,-4.05405 6.32432,-6.81081L183.21622,154.06081c-0.32432,-1.2973 -0.16216,-2.35135 0.48649,-3.16216c0.64865,-0.81081 1.5,-1.05405 2.55405,-0.72973z"
           id="path34" />
        <path
           d="M260.93243,146.52027c-1.21622,2.18919 -3.40541,4.98649 -6.56757,8.39189c-3.16216,3.40541 -6,6.04054 -8.51351,7.90541c-3.24324,2.35135 -6.77027,3.52703 -10.58108,3.52703c-0.72973,0 -1.68243,-0.34459 -2.85811,-1.03378c-1.17568,-0.68919 -1.96622,-1.68243 -2.37162,-2.97973c-0.40541,-1.2973 -0.60811,-2.55405 -0.60811,-3.77027c0,-4.21622 0.81081,-8.39189 2.43243,-12.52703c-0.24324,0.16216 -1.35811,1.88514 -3.34459,5.16892c-1.98649,3.28378 -4.41892,6.38514 -7.2973,9.30405c-2.87838,2.91892 -5.77703,4.37838 -8.69595,4.37838c-1.37838,0 -2.95946,-0.36486 -4.74324,-1.09459c-3.24324,-1.45946 -4.86486,-4.13514 -4.86486,-8.02703c0,-4.78378 1.64189,-9.70946 4.92568,-14.77703c3.28378,-5.06757 5.37162,-7.76351 6.26351,-8.08784c1.21622,-0.32432 2.37162,-0.48649 3.46622,-0.48649c1.09459,0 2.20946,0.22297 3.34459,0.66892c1.13514,0.44595 0.97297,1.19595 -0.48649,2.25c-5.59459,5.10811 -9.56757,10.78378 -11.91892,17.02703c-0.89189,2.43243 -1.33784,4.47973 -1.33784,6.14189c0,1.66216 0.42568,2.73649 1.27703,3.22297c0.85135,0.48649 1.68243,0.72973 2.49324,0.72973c1.94595,0 4.60135,-1.35811 7.96622,-4.07432c3.36486,-2.71622 8.00676,-8.37162 13.92568,-16.96622c0.81081,-1.21622 2.22973,-3.58784 4.25676,-7.11486c2.02703,-3.52703 3.24324,-5.61486 3.64865,-6.26351c1.2973,0 2.81757,0.30405 4.56081,0.91216c1.74324,0.60811 2.33108,1.39865 1.76351,2.37162c-3.89189,6.48649 -6.62838,11.27027 -8.20946,14.35135c-1.58108,3.08108 -2.65541,6.68919 -3.22297,10.82432c-0.08108,0.72973 -0.12162,1.66216 -0.12162,2.7973c0,1.13514 0.32432,2.06757 0.97297,2.7973c1.21622,1.2973 2.89865,1.35811 5.0473,0.18243c2.14865,-1.17568 5.08784,-3.44595 8.81757,-6.81081c3.72973,-3.36486 6.72973,-6.66892 9,-9.91216c0.32432,-0.40541 0.70946,-0.50676 1.15541,-0.30405c0.44595,0.2027 0.66892,0.40541 0.66892,0.60811c0,0.2027 -0.08108,0.42568 -0.24324,0.66892z"
           id="path36" />
        <path
           d="M273.94595,166.58784c-4.13514,0 -6.2027,-2.49324 -6.2027,-7.47973c0,-4.98649 3.56757,-11.12838 10.7027,-18.42568c0.56757,-0.56757 0.97297,-1.01351 1.21622,-1.33784L280.51351,138.12838c1.13514,-1.54054 1.66216,-2.51351 1.58108,-2.91892L281.72973,134.11486c-0.32432,-0.97297 -1.66216,-1.68243 -4.01351,-2.12838c-2.35135,-0.44595 -4.25676,-0.66892 -5.71622,-0.66892c-7.2973,10.2973 -11.51351,16.17568 -12.64865,17.63514c-1.13514,1.45946 -1.90541,2.06757 -2.31081,1.82432c-0.40541,-0.24324 -0.60811,-0.52703 -0.60811,-0.85135c0,-0.32432 0.24324,-0.81081 0.72973,-1.45946c4.37838,-5.35135 8.14865,-11.06757 11.31081,-17.14865c-0.97297,-0.16216 -1.7027,-0.50676 -2.18919,-1.03378c-0.48649,-0.52703 -0.52703,-1.41892 -0.12162,-2.67568c0.40541,-1.25676 1.64189,-2.93919 3.70946,-5.0473c2.06757,-2.10811 3.87162,-3.52703 5.41216,-4.25676c1.54054,-0.72973 2.51351,-1.17568 2.91892,-1.33784c0.40541,-0.16216 0.85135,-0.24324 1.33784,-0.24324c0.97297,0 0.64865,1.45946 -0.97297,4.37838L273.82432,128.64189c3.64865,0.24324 6.77027,0.36486 9.36486,0.36486L287.44595,128.88514c1.37838,0 2.39189,0.18243 3.04054,0.5473c0.64865,0.36486 0.81081,0.99324 0.48649,1.88514c-0.56757,1.54054 -1.98649,3.60811 -4.25676,6.2027c-4.86486,5.67568 -8.51351,11.71622 -10.94595,18.12162c-0.56757,1.54054 -0.85135,2.87838 -0.85135,4.01351c0,2.35135 0.85135,3.52703 2.55405,3.52703c0.56757,0 1.64189,-0.44595 3.22297,-1.33784c1.58108,-0.89189 4.23649,-3.02027 7.96622,-6.38514c3.72973,-3.36486 6.72973,-6.66892 9,-9.91216c0.32432,-0.40541 0.70946,-0.50676 1.15541,-0.30405c0.44595,0.2027 0.66892,0.40541 0.66892,0.60811c0,0.2027 -0.08108,0.42568 -0.24324,0.66892c-1.21622,2.18919 -3.40541,4.98649 -6.56757,8.39189c-3.16216,3.40541 -6.24324,6.16216 -9.24324,8.27027c-2.91892,2.27027 -6.08108,3.40541 -9.48649,3.40541z"
           id="path38" />
        <path
           x="0"
           y="0"
           d="M301.7973,164.52027c-2.91892,1.45946 -4.78378,2.18919 -5.59459,2.18919c-0.81081,0 -1.21622,-0.12162 -1.21622,-0.36486c0,-0.24324 0.06081,-0.50676 0.18243,-0.79054c0.12162,-0.28378 0.68919,-1.80405 1.7027,-4.56081c1.01351,-2.75676 2.29054,-6.24324 3.83108,-10.45946c1.54054,-4.21622 2.87838,-7.74324 4.01351,-10.58108c-1.86486,2.02703 -4.05405,4.82432 -6.56757,8.39189c-0.40541,0.56757 -0.9527,0.72973 -1.64189,0.48649c-0.68919,-0.24324 -0.46622,-1.09459 0.66892,-2.55405c2.67568,-3.24324 6.04054,-7.90541 10.09459,-13.98649c-1.21622,-0.64865 -1.82432,-1.27703 -1.82432,-1.88514c0,-0.60811 0.08108,-1.07432 0.24324,-1.39865c0.40541,-0.97297 1.13514,-1.17568 2.18919,-0.60811c0.48649,0.16216 0.81081,0.24324 0.97297,0.24324c3.56757,-9.40541 8.02703,-17.7973 13.37838,-25.17568c2.91892,-4.13514 5.95946,-7.15541 9.12162,-9.06081c3.16216,-1.90541 6.12162,-2.85811 8.87838,-2.85811c1.94595,0 3.81081,0.46622 5.59459,1.39865c1.78378,0.93243 2.67568,2.4527 2.67568,4.56081c0,4.05405 -3.48649,9.93243 -10.45946,17.63514c-3.72973,3.97297 -7.90541,7.62162 -12.52703,10.94595c-4.62162,3.32432 -8.71622,5.75676 -12.28378,7.2973c-3.16216,6.97297 -5.95946,14.27027 -8.39189,21.89189L312.74324,144.93919c-0.08108,-0.72973 -0.12162,-1.5 -0.12162,-2.31081c0,-2.43243 0.52703,-3.93243 1.58108,-4.5c0.56757,-0.24324 0.93243,0.24324 1.09459,1.45946L315.78378,141.29054c6.24324,-7.2973 10.74324,-11.59459 13.5,-12.89189c1.2973,-0.64865 2.47297,-0.97297 3.52703,-0.97297c1.05405,0 1.98649,0.28378 2.7973,0.85135c0.81081,0.56757 1.21622,1.17568 1.21622,1.82432c0,1.13514 -0.93243,2.14865 -2.7973,3.04054c-8.91892,4.2973 -14.7973,7.94595 -17.63514,10.94595c1.94595,6.81081 3.85135,12.16216 5.71622,16.05405c1.86486,3.89189 4.80405,8.27027 8.81757,13.13514c4.01351,4.86486 7.68243,7.2973 11.00676,7.2973c2.75676,0 3.89189,-1.21622 3.40541,-3.64865c-0.32432,-2.18919 -0.99324,-4.07432 -2.00676,-5.65541c-1.01351,-1.58108 -1.11486,-2.37162 -0.30405,-2.37162c0.72973,0.08108 1.5,0.44595 2.31081,1.09459c0.48649,0.56757 1.05405,1.56081 1.7027,2.97973c0.64865,1.41892 0.97297,2.61486 0.97297,3.58784c-0.08108,2.27027 -1.17568,4.05405 -3.28378,5.35135c-2.10811,1.2973 -4.13514,1.94595 -6.08108,1.94595c-3.81081,0 -7.54054,-1.88514 -11.18919,-5.65541c-3.64865,-3.77027 -6.68919,-8.33108 -9.12162,-13.68243c-2.43243,-5.35135 -4.13514,-10.82432 -5.10811,-16.41892c-1.45946,2.02703 -3.08108,4.45946 -4.86486,7.2973c-3.64865,5.59459 -5.83784,8.63514 -6.56757,9.12162z M341.56757,104.43919c0,0 0.5473,-0.91216 1.64189,-2.73649c1.09459,-1.82432 1.64189,-3.46622 1.64189,-4.92568c0,-1.45946 -0.60811,-2.18919 -1.82432,-2.18919c-1.21622,0 -2.75676,0.72973 -4.62162,2.18919c-5.18919,3.97297 -9.56757,8.49324 -13.13514,13.56081c-3.56757,5.06757 -7.09459,11.37162 -10.58108,18.91216c7.54054,-3.48649 14.39189,-8.75676 20.55405,-15.81081c2.02703,-2.35135 4.13514,-5.35135 6.32432,-9z"
           id="path40" />
        <path
           d="M366.13514,128.15541c4.37838,0 6.56757,2.10811 6.56757,6.32432c0,2.18919 -0.60811,3.97297 -1.82432,5.35135c-2.02703,3 -5.31081,5.61486 -9.85135,7.84459c-4.54054,2.22973 -8.39189,3.46622 -11.55405,3.70946c-1.13514,0.08108 -1.74324,-0.24324 -1.82432,-0.97297c-0.08108,-0.32432 0.02027,-0.52703 0.30405,-0.60811c0.28378,-0.08108 0.50676,-0.12162 0.66892,-0.12162c1.86486,-0.16216 4.25676,-1.05405 7.17568,-2.67568c5.43243,-2.91892 9.40541,-5.91892 11.91892,-9c1.05405,-1.45946 1.58108,-2.85811 1.58108,-4.19595c0,-1.33784 -0.64865,-2.00676 -1.94595,-2.00676c-1.05405,0 -2.47297,0.44595 -4.25676,1.33784c-3.81081,1.78378 -7.82432,4.88514 -12.04054,9.30405c-4.21622,4.41892 -6.97297,8.73649 -8.27027,12.9527c-0.40541,1.2973 -0.60811,2.57432 -0.60811,3.83108c0,1.25676 0.52703,2.4527 1.58108,3.58784c1.05405,1.13514 2.67568,1.7027 4.86486,1.7027c2.43243,0 5.22973,-0.64865 8.39189,-1.94595c9.16216,-3.72973 16.21622,-9.36486 21.16216,-16.90541c0.48649,-0.64865 0.93243,-0.77027 1.33784,-0.36486c0.32432,0.16216 0.48649,0.36486 0.48649,0.60811c0,0.24324 -0.12162,0.52703 -0.36486,0.85135c-2.43243,4.05405 -5.51351,7.66216 -9.24324,10.82432c-7.21622,6.16216 -14.22973,9.24324 -21.04054,9.24324c-5.83784,0 -9.93243,-1.74324 -12.28378,-5.22973c-0.89189,-1.37838 -1.33784,-3.04054 -1.33784,-4.98649c0,-1.94595 0.52703,-4.25676 1.58108,-6.93243c2.02703,-4.62162 6.36486,-9.36486 13.01351,-14.22973c6.64865,-4.86486 11.91892,-7.2973 15.81081,-7.2973z"
           id="path42" />
      </g>
    </g>
    <g
       fill="#666666"
       id="g44"
       inkscape:export-filename="C:\Users\matts\Desktop\dev\brit\app\img\global\logo.png"
       inkscape:export-xdpi="18.781725"
       inkscape:export-ydpi="18.781725">
      <g
         id="g46">
        <circle
           cx="20"
           cy="112.95"
           r="3.76"
           id="circle48" />
        <circle
           cx="140"
           cy="112.95"
           r="3.76"
           id="circle50" />
        <circle
           cx="260"
           cy="112.95"
           r="3.76"
           id="circle52" />
        <circle
           cx="380"
           cy="112.95"
           r="3.76"
           id="circle54" />
        <path
           x="0"
           y="0"
           d="M376.24,112.95L376.36,113.89L264.06,113.89L263.71,113.32L263.68,112.31L264.22,112.01L376.36,112.01z M136.24,112.95L136.34,113.89L24.49,113.89L23.73,113.41L23.68,112.38L24.48,112.01L136.34,112.01z M256.24,112.95L256.35,113.89L144.42,113.89L143.74,113.39L143.68,112.37L144.4,112.01L256.35,112.01z"
           id="path56" />
      </g>
    </g>
  </g>
</svg>
